<svg width="42" height="42" viewBox="0 0 42 42" fill="none" xmlns="http://www.w3.org/2000/svg">
<g filter="url(#filter0_dd_1_3885)">
<rect x="5" y="1" width="32" height="32" rx="8" fill="white"/>
</g>
<path d="M14.625 26.1667C14.4444 26.1667 14.2951 26.1076 14.1771 25.9896C14.059 25.8715 14 25.7222 14 25.5417C14 25.3611 14.059 25.2118 14.1771 25.0938C14.2951 24.9757 14.4444 24.9167 14.625 24.9167H27.375C27.5556 24.9167 27.7049 24.9757 27.8229 25.0938C27.941 25.2118 28 25.3611 28 25.5417C28 25.7222 27.941 25.8715 27.8229 25.9896C27.7049 26.1076 27.5556 26.1667 27.375 26.1667H14.625ZM14.625 9.08333C14.4444 9.08333 14.2951 9.02431 14.1771 8.90625C14.059 8.7882 14 8.63889 14 8.45833C14 8.27778 14.059 8.12847 14.1771 8.01042C14.2951 7.89236 14.4444 7.83333 14.625 7.83333H27.375C27.5556 7.83333 27.7049 7.89236 27.8229 8.01042C27.941 8.12847 28 8.27778 28 8.45833C28 8.63889 27.941 8.7882 27.8229 8.90625C27.7049 9.02431 27.5556 9.08333 27.375 9.08333H14.625ZM21 17.75C21.6944 17.75 22.2778 17.5139 22.75 17.0417C23.2222 16.5694 23.4583 15.9861 23.4583 15.2917C23.4583 14.5972 23.2222 14.0139 22.75 13.5417C22.2778 13.0694 21.6944 12.8333 21 12.8333C20.3056 12.8333 19.7222 13.0694 19.25 13.5417C18.7778 14.0139 18.5417 14.5972 18.5417 15.2917C18.5417 15.9861 18.7778 16.5694 19.25 17.0417C19.7222 17.5139 20.3056 17.75 21 17.75ZM13.75 23.6667C13.4167 23.6667 13.125 23.5417 12.875 23.2917C12.625 23.0417 12.5 22.75 12.5 22.4167V11.5833C12.5 11.2222 12.625 10.9236 12.875 10.6875C13.125 10.4514 13.4167 10.3333 13.75 10.3333H28.25C28.5833 10.3333 28.875 10.4583 29.125 10.7083C29.375 10.9583 29.5 11.25 29.5 11.5833V22.4167C29.5 22.75 29.375 23.0417 29.125 23.2917C28.875 23.5417 28.5833 23.6667 28.25 23.6667H13.75ZM15.5833 22.4167H26.4167C25.7361 21.5417 24.8993 20.8854 23.9063 20.4479C22.9132 20.0104 21.9444 19.7917 21 19.7917C20.0417 19.7917 19.0764 20.0104 18.1042 20.4479C17.1319 20.8854 16.2917 21.5417 15.5833 22.4167Z" fill="#384764"/>
<defs>
<filter id="filter0_dd_1_3885" x="0" y="0" width="42" height="42" filterUnits="userSpaceOnUse" color-interpolation-filters="sRGB">
<feFlood flood-opacity="0" result="BackgroundImageFix"/>
<feColorMatrix in="SourceAlpha" type="matrix" values="0 0 0 0 0 0 0 0 0 0 0 0 0 0 0 0 0 0 127 0" result="hardAlpha"/>
<feMorphology radius="1" operator="erode" in="SourceAlpha" result="effect1_dropShadow_1_3885"/>
<feOffset dy="2"/>
<feGaussianBlur stdDeviation="2"/>
<feColorMatrix type="matrix" values="0 0 0 0 0 0 0 0 0 0 0 0 0 0 0 0 0 0 0.07 0"/>
<feBlend mode="normal" in2="BackgroundImageFix" result="effect1_dropShadow_1_3885"/>
<feColorMatrix in="SourceAlpha" type="matrix" values="0 0 0 0 0 0 0 0 0 0 0 0 0 0 0 0 0 0 127 0" result="hardAlpha"/>
<feMorphology radius="1" operator="erode" in="SourceAlpha" result="effect2_dropShadow_1_3885"/>
<feOffset dy="4"/>
<feGaussianBlur stdDeviation="3"/>
<feColorMatrix type="matrix" values="0 0 0 0 0 0 0 0 0 0 0 0 0 0 0 0 0 0 0.12 0"/>
<feBlend mode="normal" in2="effect1_dropShadow_1_3885" result="effect2_dropShadow_1_3885"/>
<feBlend mode="normal" in="SourceGraphic" in2="effect2_dropShadow_1_3885" result="shape"/>
</filter>
</defs>
</svg>
