<svg width="44" height="44" viewBox="0 0 44 44" fill="none" xmlns="http://www.w3.org/2000/svg">
<path d="M29.9818 20.1523C30.0472 20.3254 30.0769 20.5104 30.0692 20.6962L30.0183 28.5256C30.0157 28.8924 29.8676 29.2451 29.6066 29.5061C29.3456 29.7671 28.9929 29.9152 28.6262 29.9178L20.7967 29.9687C20.6109 29.9764 20.4259 29.9467 20.2528 29.8813C20.0797 29.8158 19.922 29.716 19.7891 29.5878C19.6562 29.4596 19.5509 29.3056 19.4794 29.135C19.4078 28.9644 19.3716 28.7806 19.3728 28.5948C19.374 28.4089 19.4126 28.2247 19.4864 28.0531C19.5601 27.8816 19.6675 27.7262 19.8021 27.5962C19.9366 27.4663 20.0956 27.3644 20.2696 27.2967C20.4436 27.229 20.629 27.1969 20.8147 27.2023L25.3036 27.1731L14.0375 15.9071C13.7797 15.6492 13.6361 15.2981 13.6385 14.9311C13.6409 14.564 13.789 14.211 14.0503 13.9497C14.3115 13.6885 14.6645 13.5404 15.0316 13.538C15.3986 13.5356 15.7497 13.6792 16.0076 13.937L27.2736 25.203L27.3028 20.7142C27.2974 20.5285 27.3295 20.3431 27.3972 20.1691C27.4649 19.9951 27.5668 19.8361 27.6967 19.7016C27.8267 19.567 27.9821 19.4596 28.1536 19.3859C28.3252 19.3121 28.5094 19.2735 28.6953 19.2723C28.8811 19.2711 29.0649 19.3073 29.2355 19.3789C29.4061 19.4504 29.5601 19.5557 29.6883 19.6886C29.8165 19.8215 29.9163 19.9792 29.9818 20.1523Z" fill="#01B052"/>
</svg>
