<svg width="97" height="17" viewBox="0 0 97 17" fill="none" xmlns="http://www.w3.org/2000/svg">
<path d="M21.1186 14V3.81818H27.5021V5.14062H22.6548V8.2429H27.169V9.56037H22.6548V12.6776H27.5618V14H21.1186ZM35.5803 6.36364L32.8111 14H31.2202L28.446 6.36364H30.0419L31.9759 12.2401H32.0554L33.9844 6.36364H35.5803ZM38.5936 14.169C38.1097 14.169 37.6722 14.0795 37.2811 13.9006C36.89 13.7183 36.5801 13.4548 36.3514 13.1101C36.126 12.7654 36.0134 12.3428 36.0134 11.8423C36.0134 11.4115 36.0962 11.0568 36.2619 10.7784C36.4277 10.5 36.6514 10.2796 36.9331 10.1172C37.2148 9.95478 37.5297 9.83215 37.8777 9.74929C38.2257 9.66643 38.5803 9.60346 38.9416 9.56037C39.399 9.50734 39.7702 9.46425 40.0553 9.43111C40.3403 9.39465 40.5474 9.33665 40.6767 9.2571C40.806 9.17756 40.8706 9.0483 40.8706 8.86932V8.83452C40.8706 8.40033 40.748 8.06392 40.5027 7.82528C40.2607 7.58665 39.8995 7.46733 39.4189 7.46733C38.9184 7.46733 38.524 7.57836 38.2357 7.80043C37.9506 8.01918 37.7534 8.26278 37.644 8.53125L36.247 8.21307C36.4127 7.74905 36.6547 7.37453 36.9729 7.08949C37.2944 6.80114 37.6639 6.59233 38.0815 6.46307C38.4991 6.33049 38.9383 6.2642 39.399 6.2642C39.7039 6.2642 40.0271 6.30066 40.3685 6.37358C40.7132 6.44318 41.0347 6.57244 41.333 6.76136C41.6346 6.95028 41.8815 7.22041 42.0737 7.57173C42.266 7.91974 42.3621 8.37216 42.3621 8.92898V14H40.9104V12.956H40.8507C40.7546 13.1482 40.6104 13.3371 40.4182 13.5227C40.2259 13.7083 39.979 13.8625 39.6774 13.9851C39.3758 14.1077 39.0145 14.169 38.5936 14.169ZM38.9168 12.9759C39.3277 12.9759 39.6791 12.8946 39.9707 12.7322C40.2657 12.5698 40.4894 12.3577 40.6419 12.0959C40.7977 11.8307 40.8756 11.5473 40.8756 11.2457V10.2614C40.8225 10.3144 40.7198 10.3641 40.5673 10.4105C40.4182 10.4536 40.2475 10.4917 40.0553 10.5249C39.863 10.5547 39.6758 10.5829 39.4935 10.6094C39.3112 10.6326 39.1587 10.6525 39.0361 10.669C38.7477 10.7055 38.4842 10.7668 38.2456 10.853C38.0103 10.9392 37.8214 11.0634 37.6788 11.2259C37.5396 11.3849 37.47 11.5971 37.47 11.8622C37.47 12.2301 37.6059 12.5085 37.8777 12.6974C38.1495 12.883 38.4958 12.9759 38.9168 12.9759ZM45.4413 9.46591V14H43.9548V6.36364H45.3816V7.60653H45.4761C45.6517 7.20218 45.9268 6.87737 46.3014 6.6321C46.6792 6.38684 47.1548 6.2642 47.7282 6.2642C48.2486 6.2642 48.7043 6.37358 49.0954 6.59233C49.4865 6.80777 49.7898 7.12926 50.0052 7.55682C50.2206 7.98437 50.3284 8.51302 50.3284 9.14276V14H48.8419V9.32173C48.8419 8.76823 48.6977 8.3357 48.4093 8.02415C48.121 7.70928 47.7249 7.55185 47.2211 7.55185C46.8764 7.55185 46.5698 7.62642 46.3014 7.77557C46.0362 7.92472 45.8258 8.14347 45.67 8.43182C45.5175 8.71686 45.4413 9.06155 45.4413 9.46591ZM57.3655 14L54.5416 3.81818H56.1574L58.1411 11.7031H58.2355L60.2987 3.81818H61.8996L63.9628 11.7081H64.0573L66.036 3.81818H67.6567L64.8279 14H63.2817L61.1389 6.37358H61.0594L58.9166 14H57.3655ZM68.5509 14V6.36364H70.0374V14H68.5509ZM69.3016 5.18537C69.0431 5.18537 68.821 5.09919 68.6354 4.92685C68.4531 4.75118 68.362 4.54238 68.362 4.30043C68.362 4.05516 68.4531 3.84635 68.6354 3.67401C68.821 3.49834 69.0431 3.41051 69.3016 3.41051C69.5601 3.41051 69.7805 3.49834 69.9628 3.67401C70.1484 3.84635 70.2412 4.05516 70.2412 4.30043C70.2412 4.54238 70.1484 4.75118 69.9628 4.92685C69.7805 5.09919 69.5601 5.18537 69.3016 5.18537ZM73.1365 9.46591V14H71.65V6.36364H73.0768V7.60653H73.1713C73.3469 7.20218 73.622 6.87737 73.9966 6.6321C74.3744 6.38684 74.85 6.2642 75.4234 6.2642C75.9438 6.2642 76.3995 6.37358 76.7906 6.59233C77.1817 6.80777 77.485 7.12926 77.7004 7.55682C77.9158 7.98437 78.0236 8.51302 78.0236 9.14276V14H76.5371V9.32173C76.5371 8.76823 76.3929 8.3357 76.1045 8.02415C75.8162 7.70928 75.4201 7.55185 74.9163 7.55185C74.5716 7.55185 74.265 7.62642 73.9966 7.77557C73.7314 7.92472 73.521 8.14347 73.3652 8.43182C73.2127 8.71686 73.1365 9.06155 73.1365 9.46591ZM83.1946 6.36364V7.55682H79.0234V6.36364H83.1946ZM80.142 4.53409H81.6285V11.7578C81.6285 12.0462 81.6716 12.2633 81.7578 12.4091C81.8439 12.5516 81.955 12.6494 82.0909 12.7024C82.2301 12.7521 82.3809 12.777 82.5433 12.777C82.6626 12.777 82.767 12.7687 82.8565 12.7521C82.946 12.7356 83.0156 12.7223 83.0653 12.7124L83.3338 13.9403C83.2476 13.9735 83.125 14.0066 82.9659 14.0398C82.8068 14.0762 82.6079 14.0961 82.3693 14.0994C81.9782 14.1061 81.6136 14.0365 81.2755 13.8906C80.9375 13.7448 80.664 13.5194 80.4552 13.2145C80.2464 12.9096 80.142 12.5268 80.142 12.0661V4.53409ZM87.6608 14.1541C86.9085 14.1541 86.2605 13.9934 85.717 13.6719C85.1767 13.3471 84.7591 12.8913 84.4641 12.3047C84.1724 11.7147 84.0266 11.0237 84.0266 10.2315C84.0266 9.44934 84.1724 8.75994 84.4641 8.16335C84.7591 7.56676 85.1701 7.10109 85.6971 6.76633C86.2274 6.43158 86.8472 6.2642 87.5564 6.2642C87.9873 6.2642 88.4049 6.33546 88.8093 6.47798C89.2136 6.6205 89.5766 6.84422 89.8981 7.14915C90.2196 7.45407 90.4731 7.85014 90.6587 8.33736C90.8443 8.82126 90.9371 9.40956 90.9371 10.1023V10.6293H84.8668V9.51562H89.4804C89.4804 9.12453 89.4009 8.77817 89.2418 8.47656C89.0827 8.17164 88.859 7.93134 88.5706 7.75568C88.2856 7.58002 87.9509 7.49219 87.5664 7.49219C87.1488 7.49219 86.7842 7.59493 86.4726 7.80043C86.1644 8.0026 85.9258 8.26776 85.7567 8.59588C85.591 8.92069 85.5081 9.27367 85.5081 9.65483V10.5249C85.5081 11.0353 85.5976 11.4695 85.7766 11.8274C85.9589 12.1854 86.2125 12.4588 86.5373 12.6477C86.8621 12.8333 87.2416 12.9261 87.6758 12.9261C87.9575 12.9261 88.2143 12.8864 88.4464 12.8068C88.6784 12.724 88.8789 12.6013 89.0479 12.4389C89.217 12.2765 89.3462 12.076 89.4357 11.8374L90.8427 12.0909C90.73 12.5052 90.5278 12.8681 90.2361 13.1797C89.9478 13.4879 89.5849 13.7282 89.1474 13.9006C88.7132 14.0696 88.2177 14.1541 87.6608 14.1541ZM92.1992 14V6.36364H93.636V7.5767H93.7156C93.8548 7.16572 94.1 6.84257 94.4513 6.60724C94.806 6.36861 95.207 6.24929 95.6545 6.24929C95.7473 6.24929 95.8567 6.2526 95.9826 6.25923C96.1119 6.26586 96.2129 6.27415 96.2859 6.28409V7.70597C96.2262 7.68939 96.1201 7.67116 95.9677 7.65128C95.8152 7.62808 95.6628 7.61648 95.5103 7.61648C95.159 7.61648 94.8458 7.69105 94.5707 7.8402C94.2989 7.98603 94.0835 8.18987 93.9244 8.4517C93.7653 8.71023 93.6857 9.00521 93.6857 9.33665V14H92.1992Z" fill="#67748E"/>
<path fill-rule="evenodd" clip-rule="evenodd" d="M14 8C14 11.866 10.866 15 7 15C3.13401 15 0 11.866 0 8C0 4.13401 3.13401 1 7 1C10.866 1 14 4.13401 14 8ZM8.75 5.375C8.75 6.3415 7.96653 7.125 7 7.125C6.0335 7.125 5.25 6.3415 5.25 5.375C5.25 4.4085 6.0335 3.625 7 3.625C7.96653 3.625 8.75 4.4085 8.75 5.375ZM7.00038 8.875C5.23503 8.875 3.71389 9.92062 3.02246 11.4262C3.98521 12.543 5.41026 13.25 7.00042 13.25C8.59058 13.25 10.0156 12.5431 10.9784 11.4263C10.2869 9.92062 8.76575 8.875 7.00038 8.875Z" fill="#67748E"/>
</svg>
