<svg width="19" height="20" viewBox="0 0 19 20" fill="none" xmlns="http://www.w3.org/2000/svg">
<path d="M6 6C3.15971 6 0.857169 8.30254 0.857169 11.1429V14.2164L0.251075 14.8225C0.00593178 15.0676 -0.0673968 15.4363 0.0652718 15.7566C0.19794 16.0769 0.510489 16.2857 0.857169 16.2857H11.1429C11.4896 16.2857 11.8021 16.0769 11.9348 15.7566C12.0675 15.4363 11.9941 15.0676 11.749 14.8225L11.1429 14.2164V11.1429C11.1429 8.30254 8.84032 6 6 6Z" fill="#67748E"/>
<path d="M5.99916 19.7145C4.57901 19.7145 3.42773 18.5633 3.42773 17.1431H8.57059C8.57059 18.5633 7.41937 19.7145 5.99916 19.7145Z" fill="#67748E"/>
<circle cx="13" cy="7" r="6" fill="#F5222D"/>
<path d="M10.4659 8.80682V8.22727L13.0227 4.18182H13.4432V5.07955H13.1591L11.2273 8.13636V8.18182H14.6705V8.80682H10.4659ZM13.2045 10V8.63068V8.3608V4.18182H13.875V10H13.2045Z" fill="white"/>
</svg>
