<svg width="42" height="42" viewBox="0 0 42 42" fill="none" xmlns="http://www.w3.org/2000/svg">
<g filter="url(#filter0_dd_1_3864)">
<rect x="5" y="1" width="32" height="32" rx="8" fill="white"/>
</g>
<path d="M13.5 25.1667V8.79166C13.5 8.79166 13.5174 8.79166 13.5521 8.79166C13.5868 8.79166 13.6389 8.82638 13.7083 8.89582L14.5417 9.72916C14.6111 9.7986 14.6806 9.83332 14.75 9.83332C14.8194 9.83332 14.8889 9.7986 14.9583 9.72916L15.7917 8.89582C15.8611 8.82638 15.9306 8.79166 16 8.79166C16.0694 8.79166 16.1389 8.82638 16.2083 8.89582L17.0417 9.72916C17.1111 9.7986 17.1806 9.83332 17.25 9.83332C17.3194 9.83332 17.3889 9.7986 17.4583 9.72916L18.2917 8.89582C18.3611 8.82638 18.4306 8.79166 18.5 8.79166C18.5694 8.79166 18.6389 8.82638 18.7083 8.89582L19.5417 9.72916C19.6111 9.7986 19.6806 9.83332 19.75 9.83332C19.8194 9.83332 19.8889 9.7986 19.9583 9.72916L20.7917 8.89582C20.8611 8.82638 20.9306 8.79166 21 8.79166C21.0694 8.79166 21.1389 8.82638 21.2083 8.89582L22.0417 9.72916C22.1111 9.7986 22.1806 9.83332 22.25 9.83332C22.3194 9.83332 22.3889 9.7986 22.4583 9.72916L23.2917 8.89582C23.3611 8.82638 23.4306 8.79166 23.5 8.79166C23.5694 8.79166 23.6389 8.82638 23.7083 8.89582L24.5417 9.72916C24.6111 9.7986 24.6806 9.83332 24.75 9.83332C24.8194 9.83332 24.8889 9.7986 24.9583 9.72916L25.7917 8.89582C25.8611 8.82638 25.9306 8.79166 26 8.79166C26.0694 8.79166 26.1389 8.82638 26.2083 8.89582L27.0417 9.72916C27.1111 9.7986 27.1806 9.83332 27.25 9.83332C27.3194 9.83332 27.3889 9.7986 27.4583 9.72916L28.2917 8.89582C28.3611 8.82638 28.4132 8.79166 28.4479 8.79166C28.4826 8.79166 28.5 8.79166 28.5 8.79166V25.1667C28.5 25.1667 28.4826 25.1736 28.4479 25.1875C28.4132 25.2014 28.3611 25.1736 28.2917 25.1042L27.4583 24.2708C27.3889 24.2014 27.3194 24.1667 27.25 24.1667C27.1806 24.1667 27.1111 24.2014 27.0417 24.2708L26.2083 25.1042C26.1389 25.1736 26.0694 25.2083 26 25.2083C25.9306 25.2083 25.8611 25.1736 25.7917 25.1042L24.9583 24.2708C24.8889 24.2014 24.8194 24.1667 24.75 24.1667C24.6806 24.1667 24.6111 24.2014 24.5417 24.2708L23.7083 25.1042C23.6389 25.1736 23.5694 25.2083 23.5 25.2083C23.4306 25.2083 23.3611 25.1736 23.2917 25.1042L22.4583 24.2708C22.3889 24.2014 22.3194 24.1667 22.25 24.1667C22.1806 24.1667 22.1111 24.2014 22.0417 24.2708L21.2083 25.1042C21.1389 25.1736 21.0694 25.2083 21 25.2083C20.9306 25.2083 20.8611 25.1736 20.7917 25.1042L19.9583 24.2708C19.8889 24.2014 19.8194 24.1667 19.75 24.1667C19.6806 24.1667 19.6111 24.2014 19.5417 24.2708L18.7083 25.1042C18.6389 25.1736 18.5694 25.2083 18.5 25.2083C18.4306 25.2083 18.3611 25.1736 18.2917 25.1042L17.4583 24.2708C17.3889 24.2014 17.3194 24.1667 17.25 24.1667C17.1806 24.1667 17.1111 24.2014 17.0417 24.2708L16.2083 25.1042C16.1389 25.1736 16.0694 25.2083 16 25.2083C15.9306 25.2083 15.8611 25.1736 15.7917 25.1042L14.9583 24.2708C14.8889 24.2014 14.8194 24.1667 14.75 24.1667C14.6806 24.1667 14.6111 24.2014 14.5417 24.2708L13.7083 25.1042C13.6389 25.1736 13.5868 25.2014 13.5521 25.1875C13.5174 25.1736 13.5 25.1667 13.5 25.1667ZM16.5625 20.8333H25.5208C25.7014 20.8333 25.8507 20.7743 25.9687 20.6562C26.0868 20.5382 26.1458 20.3889 26.1458 20.2083C26.1458 20.0278 26.0868 19.8785 25.9687 19.7604C25.8507 19.6424 25.7014 19.5833 25.5208 19.5833H16.5625C16.3819 19.5833 16.2326 19.6424 16.1146 19.7604C15.9965 19.8785 15.9375 20.0278 15.9375 20.2083C15.9375 20.3889 15.9965 20.5382 16.1146 20.6562C16.2326 20.7743 16.3819 20.8333 16.5625 20.8333ZM16.5625 17.625H25.5208C25.7014 17.625 25.8507 17.566 25.9687 17.4479C26.0868 17.3299 26.1458 17.1805 26.1458 17C26.1458 16.8194 26.0868 16.6701 25.9687 16.5521C25.8507 16.434 25.7014 16.375 25.5208 16.375H16.5625C16.3819 16.375 16.2326 16.434 16.1146 16.5521C15.9965 16.6701 15.9375 16.8194 15.9375 17C15.9375 17.1805 15.9965 17.3299 16.1146 17.4479C16.2326 17.566 16.3819 17.625 16.5625 17.625ZM16.5625 14.3958H25.5208C25.7014 14.3958 25.8507 14.3368 25.9687 14.2187C26.0868 14.1007 26.1458 13.9514 26.1458 13.7708C26.1458 13.5903 26.0868 13.441 25.9687 13.3229C25.8507 13.2049 25.7014 13.1458 25.5208 13.1458H16.5625C16.3819 13.1458 16.2326 13.2049 16.1146 13.3229C15.9965 13.441 15.9375 13.5903 15.9375 13.7708C15.9375 13.9514 15.9965 14.1007 16.1146 14.2187C16.2326 14.3368 16.3819 14.3958 16.5625 14.3958Z" fill="#384764"/>
<defs>
<filter id="filter0_dd_1_3864" x="0" y="0" width="42" height="42" filterUnits="userSpaceOnUse" color-interpolation-filters="sRGB">
<feFlood flood-opacity="0" result="BackgroundImageFix"/>
<feColorMatrix in="SourceAlpha" type="matrix" values="0 0 0 0 0 0 0 0 0 0 0 0 0 0 0 0 0 0 127 0" result="hardAlpha"/>
<feMorphology radius="1" operator="erode" in="SourceAlpha" result="effect1_dropShadow_1_3864"/>
<feOffset dy="2"/>
<feGaussianBlur stdDeviation="2"/>
<feColorMatrix type="matrix" values="0 0 0 0 0 0 0 0 0 0 0 0 0 0 0 0 0 0 0.07 0"/>
<feBlend mode="normal" in2="BackgroundImageFix" result="effect1_dropShadow_1_3864"/>
<feColorMatrix in="SourceAlpha" type="matrix" values="0 0 0 0 0 0 0 0 0 0 0 0 0 0 0 0 0 0 127 0" result="hardAlpha"/>
<feMorphology radius="1" operator="erode" in="SourceAlpha" result="effect2_dropShadow_1_3864"/>
<feOffset dy="4"/>
<feGaussianBlur stdDeviation="3"/>
<feColorMatrix type="matrix" values="0 0 0 0 0 0 0 0 0 0 0 0 0 0 0 0 0 0 0.12 0"/>
<feBlend mode="normal" in2="effect1_dropShadow_1_3864" result="effect2_dropShadow_1_3864"/>
<feBlend mode="normal" in="SourceGraphic" in2="effect2_dropShadow_1_3864" result="shape"/>
</filter>
</defs>
</svg>
