<svg width="44" height="44" viewBox="0 0 44 44" fill="none" xmlns="http://www.w3.org/2000/svg">
<path d="M20.4238 13.8466C20.5969 13.7812 20.7819 13.7514 20.9677 13.7592L28.7971 13.81C29.1639 13.8126 29.5165 13.9607 29.7776 14.2218C30.0386 14.4828 30.1867 14.8354 30.1893 15.2022L30.2402 23.0317C30.2479 23.2175 30.2182 23.4024 30.1528 23.5755C30.0873 23.7486 29.9875 23.9063 29.8593 24.0392C29.7311 24.1721 29.5771 24.2775 29.4065 24.349C29.2358 24.4205 29.0521 24.4568 28.8663 24.4556C28.6804 24.4544 28.4962 24.4157 28.3246 24.342C28.1531 24.2682 27.9977 24.1609 27.8677 24.0263C27.7378 23.8917 27.6359 23.7327 27.5682 23.5587C27.5005 23.3848 27.4684 23.1994 27.4738 23.0137L27.4446 18.5248L16.1786 29.7908C15.9207 30.0487 15.5696 30.1922 15.2025 30.1899C14.8355 30.1875 14.4825 30.0394 14.2212 29.7781C13.96 29.5169 13.8119 29.1639 13.8095 28.7968C13.8071 28.4297 13.9506 28.0786 14.2085 27.8208L25.4745 16.5547L20.9857 16.5256C20.7999 16.5309 20.6146 16.4988 20.4406 16.4311C20.2666 16.3634 20.1076 16.2616 19.973 16.1316C19.8385 16.0017 19.7311 15.8463 19.6574 15.6747C19.5836 15.5032 19.545 15.319 19.5438 15.1331C19.5426 14.9472 19.5788 14.7635 19.6503 14.5929C19.7219 14.4223 19.8272 14.2683 19.9601 14.14C20.093 14.0118 20.2507 13.912 20.4238 13.8466Z" fill="#D1000A"/>
</svg>
