<svg width="42" height="42" viewBox="0 0 42 42" fill="none" xmlns="http://www.w3.org/2000/svg">
<g filter="url(#filter0_dd_1_3857)">
<rect x="5" y="1" width="32" height="32" rx="8" fill="white"/>
</g>
<path d="M23.792 18.0832L26.167 15.7082C26.292 15.5832 26.3545 15.4373 26.3545 15.2707C26.3545 15.104 26.292 14.9582 26.167 14.8332L23.792 12.4373C23.6809 12.3262 23.5455 12.2984 23.3857 12.354C23.226 12.4096 23.0628 12.4373 22.8962 12.4373C22.7712 12.5623 22.7087 12.7151 22.7087 12.8957C22.7087 13.0762 22.7712 13.229 22.8962 13.354L24.1878 14.6457H20.7712C20.6045 14.6457 20.4621 14.7047 20.3441 14.8228C20.226 14.9408 20.167 15.0901 20.167 15.2707C20.167 15.4512 20.226 15.6005 20.3441 15.7186C20.4621 15.8366 20.6114 15.8957 20.792 15.8957H24.1878L22.8753 17.2082C22.7503 17.3332 22.6878 17.479 22.6878 17.6457C22.6878 17.8123 22.7573 17.9582 22.8962 18.0832C23.0073 18.2082 23.1531 18.2707 23.3337 18.2707C23.5142 18.2707 23.667 18.2082 23.792 18.0832ZM18.2295 21.729C18.3545 21.854 18.5003 21.9165 18.667 21.9165C18.8337 21.9165 18.9864 21.8471 19.1253 21.7082C19.2364 21.5971 19.292 21.4512 19.292 21.2707C19.292 21.0901 19.2364 20.9373 19.1253 20.8123L17.8128 19.5207H21.2295C21.3962 19.5207 21.5385 19.4616 21.6566 19.3436C21.7746 19.2255 21.8337 19.0762 21.8337 18.8957C21.8337 18.7151 21.7746 18.5658 21.6566 18.4478C21.5385 18.3297 21.3892 18.2707 21.2087 18.2707H17.8128L19.1253 16.9582C19.2503 16.8332 19.3128 16.6873 19.3128 16.5207C19.3128 16.354 19.2503 16.2082 19.1253 16.0832C19.0003 15.9582 18.8475 15.8957 18.667 15.8957C18.4864 15.8957 18.3406 15.9582 18.2295 16.0832L15.8337 18.4582C15.7087 18.5832 15.6462 18.729 15.6462 18.8957C15.6462 19.0623 15.7087 19.2082 15.8337 19.3332L18.2295 21.729ZM21.0003 25.3332C19.8614 25.3332 18.785 25.1144 17.7712 24.6769C16.7573 24.2394 15.8719 23.6422 15.1149 22.8853C14.358 22.1283 13.7607 21.2429 13.3232 20.229C12.8857 19.2151 12.667 18.1387 12.667 16.9998C12.667 15.8609 12.8857 14.7846 13.3232 13.7707C13.7607 12.7568 14.358 11.8714 15.1149 11.1144C15.8719 10.3575 16.7573 9.76025 17.7712 9.32275C18.785 8.88525 19.8614 8.6665 21.0003 8.6665C22.1392 8.6665 23.2156 8.88525 24.2295 9.32275C25.2434 9.76025 26.1288 10.3575 26.8857 11.1144C27.6427 11.8714 28.2399 12.7568 28.6774 13.7707C29.1149 14.7846 29.3337 15.8609 29.3337 16.9998C29.3337 18.1387 29.1149 19.2151 28.6774 20.229C28.2399 21.2429 27.6427 22.1283 26.8857 22.8853C26.1288 23.6422 25.2434 24.2394 24.2295 24.6769C23.2156 25.1144 22.1392 25.3332 21.0003 25.3332Z" fill="#384764"/>
<defs>
<filter id="filter0_dd_1_3857" x="0" y="0" width="42" height="42" filterUnits="userSpaceOnUse" color-interpolation-filters="sRGB">
<feFlood flood-opacity="0" result="BackgroundImageFix"/>
<feColorMatrix in="SourceAlpha" type="matrix" values="0 0 0 0 0 0 0 0 0 0 0 0 0 0 0 0 0 0 127 0" result="hardAlpha"/>
<feMorphology radius="1" operator="erode" in="SourceAlpha" result="effect1_dropShadow_1_3857"/>
<feOffset dy="2"/>
<feGaussianBlur stdDeviation="2"/>
<feColorMatrix type="matrix" values="0 0 0 0 0 0 0 0 0 0 0 0 0 0 0 0 0 0 0.07 0"/>
<feBlend mode="normal" in2="BackgroundImageFix" result="effect1_dropShadow_1_3857"/>
<feColorMatrix in="SourceAlpha" type="matrix" values="0 0 0 0 0 0 0 0 0 0 0 0 0 0 0 0 0 0 127 0" result="hardAlpha"/>
<feMorphology radius="1" operator="erode" in="SourceAlpha" result="effect2_dropShadow_1_3857"/>
<feOffset dy="4"/>
<feGaussianBlur stdDeviation="3"/>
<feColorMatrix type="matrix" values="0 0 0 0 0 0 0 0 0 0 0 0 0 0 0 0 0 0 0.12 0"/>
<feBlend mode="normal" in2="effect1_dropShadow_1_3857" result="effect2_dropShadow_1_3857"/>
<feBlend mode="normal" in="SourceGraphic" in2="effect2_dropShadow_1_3857" result="shape"/>
</filter>
</defs>
</svg>
