<svg width="42" height="42" viewBox="0 0 42 42" fill="none" xmlns="http://www.w3.org/2000/svg">
<g filter="url(#filter0_dd_1_3878)">
<rect x="5" y="1" width="32" height="32" rx="8" fill="white"/>
</g>
<path d="M17.6663 23.6667C16.0413 23.6667 14.6629 23.1007 13.5309 21.9687C12.399 20.8368 11.833 19.4583 11.833 17.8333C11.833 16.125 12.4406 14.7326 13.6559 13.6562C14.8712 12.5799 16.2288 12.0903 17.7288 12.1875L16.3747 10.8333C16.2497 10.7083 16.1872 10.559 16.1872 10.3854C16.1872 10.2118 16.2497 10.0625 16.3747 9.9375C16.4997 9.8125 16.649 9.75 16.8226 9.75C16.9962 9.75 17.1455 9.8125 17.2705 9.9375L19.7288 12.3958C19.7983 12.4653 19.8469 12.5347 19.8747 12.6042C19.9025 12.6736 19.9163 12.75 19.9163 12.8333C19.9163 12.9167 19.9025 12.9931 19.8747 13.0625C19.8469 13.1319 19.7983 13.2014 19.7288 13.2708L17.2705 15.7292C17.1455 15.8542 16.9997 15.9132 16.833 15.9062C16.6663 15.8993 16.5205 15.8333 16.3955 15.7083C16.2705 15.5833 16.208 15.434 16.208 15.2604C16.208 15.0868 16.2705 14.9375 16.3955 14.8125L17.7913 13.4167C16.4719 13.3889 15.3573 13.7917 14.4476 14.625C13.5379 15.4583 13.083 16.5278 13.083 17.8333C13.083 19.0972 13.5309 20.1771 14.4268 21.0729C15.3226 21.9688 16.4025 22.4167 17.6663 22.4167H19.5413C19.7219 22.4167 19.8712 22.4757 19.9893 22.5937C20.1073 22.7118 20.1663 22.8611 20.1663 23.0417C20.1663 23.2222 20.1073 23.3715 19.9893 23.4896C19.8712 23.6076 19.7219 23.6667 19.5413 23.6667H17.6663ZM23.083 23.6667C22.7358 23.6667 22.4406 23.5451 22.1976 23.3021C21.9545 23.059 21.833 22.7639 21.833 22.4167V19.0833C21.833 18.7361 21.9545 18.441 22.1976 18.1979C22.4406 17.9549 22.7358 17.8333 23.083 17.8333H28.083C28.4302 17.8333 28.7254 17.9549 28.9684 18.1979C29.2115 18.441 29.333 18.7361 29.333 19.0833V22.4167C29.333 22.7639 29.2115 23.059 28.9684 23.3021C28.7254 23.5451 28.4302 23.6667 28.083 23.6667H23.083ZM23.083 22.4167H28.083V19.0833H23.083V22.4167ZM23.083 16.1667C22.7358 16.1667 22.4406 16.0451 22.1976 15.8021C21.9545 15.559 21.833 15.2639 21.833 14.9167V11.5833C21.833 11.2361 21.9545 10.941 22.1976 10.6979C22.4406 10.4549 22.7358 10.3333 23.083 10.3333H28.083C28.4302 10.3333 28.7254 10.4549 28.9684 10.6979C29.2115 10.941 29.333 11.2361 29.333 11.5833V14.9167C29.333 15.2639 29.2115 15.559 28.9684 15.8021C28.7254 16.0451 28.4302 16.1667 28.083 16.1667H23.083Z" fill="#384764"/>
<defs>
<filter id="filter0_dd_1_3878" x="0" y="0" width="42" height="42" filterUnits="userSpaceOnUse" color-interpolation-filters="sRGB">
<feFlood flood-opacity="0" result="BackgroundImageFix"/>
<feColorMatrix in="SourceAlpha" type="matrix" values="0 0 0 0 0 0 0 0 0 0 0 0 0 0 0 0 0 0 127 0" result="hardAlpha"/>
<feMorphology radius="1" operator="erode" in="SourceAlpha" result="effect1_dropShadow_1_3878"/>
<feOffset dy="2"/>
<feGaussianBlur stdDeviation="2"/>
<feColorMatrix type="matrix" values="0 0 0 0 0 0 0 0 0 0 0 0 0 0 0 0 0 0 0.07 0"/>
<feBlend mode="normal" in2="BackgroundImageFix" result="effect1_dropShadow_1_3878"/>
<feColorMatrix in="SourceAlpha" type="matrix" values="0 0 0 0 0 0 0 0 0 0 0 0 0 0 0 0 0 0 127 0" result="hardAlpha"/>
<feMorphology radius="1" operator="erode" in="SourceAlpha" result="effect2_dropShadow_1_3878"/>
<feOffset dy="4"/>
<feGaussianBlur stdDeviation="3"/>
<feColorMatrix type="matrix" values="0 0 0 0 0 0 0 0 0 0 0 0 0 0 0 0 0 0 0.12 0"/>
<feBlend mode="normal" in2="effect1_dropShadow_1_3878" result="effect2_dropShadow_1_3878"/>
<feBlend mode="normal" in="SourceGraphic" in2="effect2_dropShadow_1_3878" result="shape"/>
</filter>
</defs>
</svg>
